<mxfile host="app.diagrams.net" modified="2021-12-28T16:11:50.891Z" agent="5.0 (Windows NT 10.0; Win64; x64) AppleWebKit/537.36 (KHTML, like Gecko) Chrome/96.0.4664.110 Safari/537.36" etag="_7WkaAXYyx0hjNFmKk6C" version="16.1.0" type="github">
  <diagram id="qO2pxJkgnTGVDRtbSeo9" name="Page-1">
    <mxGraphModel dx="781" dy="1057" grid="1" gridSize="10" guides="1" tooltips="1" connect="1" arrows="1" fold="1" page="1" pageScale="1" pageWidth="827" pageHeight="1169" math="0" shadow="0">
      <root>
        <mxCell id="0" />
        <mxCell id="1" parent="0" />
        <mxCell id="7miDxdluwtFVcydIeeNt-6" style="edgeStyle=orthogonalEdgeStyle;rounded=0;orthogonalLoop=1;jettySize=auto;html=1;exitX=0.5;exitY=1;exitDx=0;exitDy=0;entryX=0.5;entryY=0;entryDx=0;entryDy=0;" edge="1" parent="1" source="7miDxdluwtFVcydIeeNt-1" target="7miDxdluwtFVcydIeeNt-5">
          <mxGeometry relative="1" as="geometry" />
        </mxCell>
        <mxCell id="7miDxdluwtFVcydIeeNt-41" style="edgeStyle=orthogonalEdgeStyle;rounded=0;orthogonalLoop=1;jettySize=auto;html=1;exitX=0;exitY=0.5;exitDx=0;exitDy=0;entryX=0;entryY=0.5;entryDx=0;entryDy=0;" edge="1" parent="1" source="7miDxdluwtFVcydIeeNt-1" target="7miDxdluwtFVcydIeeNt-15">
          <mxGeometry relative="1" as="geometry">
            <Array as="points">
              <mxPoint x="270" y="140" />
              <mxPoint x="40" y="140" />
              <mxPoint x="40" y="1430" />
            </Array>
          </mxGeometry>
        </mxCell>
        <mxCell id="7miDxdluwtFVcydIeeNt-1" value="1" style="ellipse;whiteSpace=wrap;html=1;aspect=fixed;" vertex="1" parent="1">
          <mxGeometry x="270" y="130" width="80" height="80" as="geometry" />
        </mxCell>
        <mxCell id="7miDxdluwtFVcydIeeNt-19" style="edgeStyle=orthogonalEdgeStyle;rounded=0;orthogonalLoop=1;jettySize=auto;html=1;exitX=0.5;exitY=1;exitDx=0;exitDy=0;entryX=0.5;entryY=0;entryDx=0;entryDy=0;" edge="1" parent="1" source="7miDxdluwtFVcydIeeNt-5" target="7miDxdluwtFVcydIeeNt-7">
          <mxGeometry relative="1" as="geometry" />
        </mxCell>
        <mxCell id="7miDxdluwtFVcydIeeNt-5" value="2" style="ellipse;whiteSpace=wrap;html=1;aspect=fixed;" vertex="1" parent="1">
          <mxGeometry x="270" y="310" width="80" height="80" as="geometry" />
        </mxCell>
        <mxCell id="7miDxdluwtFVcydIeeNt-7" value="3" style="ellipse;whiteSpace=wrap;html=1;aspect=fixed;" vertex="1" parent="1">
          <mxGeometry x="270" y="470" width="80" height="80" as="geometry" />
        </mxCell>
        <mxCell id="7miDxdluwtFVcydIeeNt-8" value="4" style="ellipse;whiteSpace=wrap;html=1;aspect=fixed;" vertex="1" parent="1">
          <mxGeometry x="150" y="650" width="80" height="80" as="geometry" />
        </mxCell>
        <mxCell id="7miDxdluwtFVcydIeeNt-9" value="5" style="ellipse;whiteSpace=wrap;html=1;aspect=fixed;" vertex="1" parent="1">
          <mxGeometry x="400" y="650" width="80" height="80" as="geometry" />
        </mxCell>
        <mxCell id="7miDxdluwtFVcydIeeNt-10" value="6" style="ellipse;whiteSpace=wrap;html=1;aspect=fixed;" vertex="1" parent="1">
          <mxGeometry x="280" y="800" width="80" height="80" as="geometry" />
        </mxCell>
        <mxCell id="7miDxdluwtFVcydIeeNt-11" value="7" style="ellipse;whiteSpace=wrap;html=1;aspect=fixed;" vertex="1" parent="1">
          <mxGeometry x="150" y="940" width="80" height="80" as="geometry" />
        </mxCell>
        <mxCell id="7miDxdluwtFVcydIeeNt-32" style="edgeStyle=orthogonalEdgeStyle;rounded=0;orthogonalLoop=1;jettySize=auto;html=1;exitX=0.5;exitY=1;exitDx=0;exitDy=0;entryX=0.5;entryY=0;entryDx=0;entryDy=0;" edge="1" parent="1" source="7miDxdluwtFVcydIeeNt-12" target="7miDxdluwtFVcydIeeNt-13">
          <mxGeometry relative="1" as="geometry" />
        </mxCell>
        <mxCell id="7miDxdluwtFVcydIeeNt-39" style="edgeStyle=orthogonalEdgeStyle;rounded=0;orthogonalLoop=1;jettySize=auto;html=1;exitX=1;exitY=0;exitDx=0;exitDy=0;entryX=1;entryY=0.5;entryDx=0;entryDy=0;" edge="1" parent="1" source="7miDxdluwtFVcydIeeNt-12" target="7miDxdluwtFVcydIeeNt-1">
          <mxGeometry relative="1" as="geometry">
            <Array as="points">
              <mxPoint x="570" y="952" />
              <mxPoint x="570" y="170" />
            </Array>
          </mxGeometry>
        </mxCell>
        <mxCell id="7miDxdluwtFVcydIeeNt-12" value="8" style="ellipse;whiteSpace=wrap;html=1;aspect=fixed;" vertex="1" parent="1">
          <mxGeometry x="414" y="940" width="80" height="80" as="geometry" />
        </mxCell>
        <mxCell id="7miDxdluwtFVcydIeeNt-13" value="9" style="ellipse;whiteSpace=wrap;html=1;aspect=fixed;" vertex="1" parent="1">
          <mxGeometry x="414" y="1110" width="80" height="80" as="geometry" />
        </mxCell>
        <mxCell id="7miDxdluwtFVcydIeeNt-29" style="edgeStyle=orthogonalEdgeStyle;rounded=0;orthogonalLoop=1;jettySize=auto;html=1;exitX=0;exitY=0.5;exitDx=0;exitDy=0;entryX=0;entryY=0.5;entryDx=0;entryDy=0;" edge="1" parent="1" source="7miDxdluwtFVcydIeeNt-14" target="7miDxdluwtFVcydIeeNt-1">
          <mxGeometry relative="1" as="geometry">
            <Array as="points">
              <mxPoint x="90" y="1270" />
              <mxPoint x="90" y="170" />
            </Array>
          </mxGeometry>
        </mxCell>
        <mxCell id="7miDxdluwtFVcydIeeNt-33" style="edgeStyle=orthogonalEdgeStyle;rounded=0;orthogonalLoop=1;jettySize=auto;html=1;exitX=0.5;exitY=1;exitDx=0;exitDy=0;entryX=0.5;entryY=0;entryDx=0;entryDy=0;" edge="1" parent="1" source="7miDxdluwtFVcydIeeNt-14" target="7miDxdluwtFVcydIeeNt-15">
          <mxGeometry relative="1" as="geometry" />
        </mxCell>
        <mxCell id="7miDxdluwtFVcydIeeNt-14" value="10" style="ellipse;whiteSpace=wrap;html=1;aspect=fixed;" vertex="1" parent="1">
          <mxGeometry x="280" y="1230" width="80" height="80" as="geometry" />
        </mxCell>
        <mxCell id="7miDxdluwtFVcydIeeNt-15" value="11" style="ellipse;whiteSpace=wrap;html=1;aspect=fixed;" vertex="1" parent="1">
          <mxGeometry x="280" y="1390" width="80" height="80" as="geometry" />
        </mxCell>
        <mxCell id="7miDxdluwtFVcydIeeNt-16" value="12" style="ellipse;whiteSpace=wrap;html=1;aspect=fixed;" vertex="1" parent="1">
          <mxGeometry x="150" y="1550" width="80" height="80" as="geometry" />
        </mxCell>
        <mxCell id="7miDxdluwtFVcydIeeNt-17" value="13" style="ellipse;whiteSpace=wrap;html=1;aspect=fixed;" vertex="1" parent="1">
          <mxGeometry x="400" y="1550" width="80" height="80" as="geometry" />
        </mxCell>
        <mxCell id="7miDxdluwtFVcydIeeNt-18" value="14" style="ellipse;whiteSpace=wrap;html=1;aspect=fixed;" vertex="1" parent="1">
          <mxGeometry x="280" y="1690" width="80" height="80" as="geometry" />
        </mxCell>
        <mxCell id="7miDxdluwtFVcydIeeNt-20" value="" style="endArrow=classic;html=1;rounded=0;entryX=0.5;entryY=0;entryDx=0;entryDy=0;exitX=0;exitY=1;exitDx=0;exitDy=0;" edge="1" parent="1" source="7miDxdluwtFVcydIeeNt-7" target="7miDxdluwtFVcydIeeNt-8">
          <mxGeometry width="50" height="50" relative="1" as="geometry">
            <mxPoint x="120" y="520" as="sourcePoint" />
            <mxPoint x="170" y="470" as="targetPoint" />
          </mxGeometry>
        </mxCell>
        <mxCell id="7miDxdluwtFVcydIeeNt-21" value="" style="endArrow=classic;html=1;rounded=0;exitX=1;exitY=1;exitDx=0;exitDy=0;entryX=0.5;entryY=0;entryDx=0;entryDy=0;" edge="1" parent="1" source="7miDxdluwtFVcydIeeNt-7" target="7miDxdluwtFVcydIeeNt-9">
          <mxGeometry width="50" height="50" relative="1" as="geometry">
            <mxPoint x="250" y="560" as="sourcePoint" />
            <mxPoint x="300" y="510" as="targetPoint" />
          </mxGeometry>
        </mxCell>
        <mxCell id="7miDxdluwtFVcydIeeNt-23" value="" style="endArrow=classic;html=1;rounded=0;exitX=1;exitY=1;exitDx=0;exitDy=0;entryX=0;entryY=0;entryDx=0;entryDy=0;" edge="1" parent="1" source="7miDxdluwtFVcydIeeNt-8" target="7miDxdluwtFVcydIeeNt-10">
          <mxGeometry width="50" height="50" relative="1" as="geometry">
            <mxPoint x="250" y="560" as="sourcePoint" />
            <mxPoint x="300" y="510" as="targetPoint" />
          </mxGeometry>
        </mxCell>
        <mxCell id="7miDxdluwtFVcydIeeNt-24" value="" style="endArrow=classic;html=1;rounded=0;exitX=0.5;exitY=1;exitDx=0;exitDy=0;entryX=1;entryY=0;entryDx=0;entryDy=0;" edge="1" parent="1" source="7miDxdluwtFVcydIeeNt-9" target="7miDxdluwtFVcydIeeNt-10">
          <mxGeometry width="50" height="50" relative="1" as="geometry">
            <mxPoint x="250" y="560" as="sourcePoint" />
            <mxPoint x="300" y="510" as="targetPoint" />
          </mxGeometry>
        </mxCell>
        <mxCell id="7miDxdluwtFVcydIeeNt-25" value="" style="endArrow=classic;html=1;rounded=0;exitX=0;exitY=1;exitDx=0;exitDy=0;entryX=1;entryY=0;entryDx=0;entryDy=0;" edge="1" parent="1" source="7miDxdluwtFVcydIeeNt-10" target="7miDxdluwtFVcydIeeNt-11">
          <mxGeometry width="50" height="50" relative="1" as="geometry">
            <mxPoint x="250" y="960" as="sourcePoint" />
            <mxPoint x="300" y="910" as="targetPoint" />
          </mxGeometry>
        </mxCell>
        <mxCell id="7miDxdluwtFVcydIeeNt-26" value="" style="endArrow=classic;html=1;rounded=0;exitX=1;exitY=1;exitDx=0;exitDy=0;entryX=0;entryY=0;entryDx=0;entryDy=0;" edge="1" parent="1" source="7miDxdluwtFVcydIeeNt-10" target="7miDxdluwtFVcydIeeNt-12">
          <mxGeometry width="50" height="50" relative="1" as="geometry">
            <mxPoint x="250" y="960" as="sourcePoint" />
            <mxPoint x="300" y="910" as="targetPoint" />
          </mxGeometry>
        </mxCell>
        <mxCell id="7miDxdluwtFVcydIeeNt-27" value="" style="endArrow=classic;html=1;rounded=0;exitX=1;exitY=1;exitDx=0;exitDy=0;entryX=0;entryY=0;entryDx=0;entryDy=0;" edge="1" parent="1" source="7miDxdluwtFVcydIeeNt-11" target="7miDxdluwtFVcydIeeNt-14">
          <mxGeometry width="50" height="50" relative="1" as="geometry">
            <mxPoint x="250" y="960" as="sourcePoint" />
            <mxPoint x="300" y="910" as="targetPoint" />
          </mxGeometry>
        </mxCell>
        <mxCell id="7miDxdluwtFVcydIeeNt-31" value="" style="endArrow=classic;html=1;rounded=0;exitX=0.5;exitY=1;exitDx=0;exitDy=0;entryX=0.971;entryY=0.192;entryDx=0;entryDy=0;entryPerimeter=0;" edge="1" parent="1" source="7miDxdluwtFVcydIeeNt-13" target="7miDxdluwtFVcydIeeNt-14">
          <mxGeometry width="50" height="50" relative="1" as="geometry">
            <mxPoint x="240" y="1030" as="sourcePoint" />
            <mxPoint x="290" y="980" as="targetPoint" />
          </mxGeometry>
        </mxCell>
        <mxCell id="7miDxdluwtFVcydIeeNt-35" value="" style="endArrow=classic;html=1;rounded=0;entryX=1;entryY=0;entryDx=0;entryDy=0;exitX=0;exitY=1;exitDx=0;exitDy=0;" edge="1" parent="1" source="7miDxdluwtFVcydIeeNt-15" target="7miDxdluwtFVcydIeeNt-16">
          <mxGeometry width="50" height="50" relative="1" as="geometry">
            <mxPoint x="240" y="1330" as="sourcePoint" />
            <mxPoint x="290" y="1280" as="targetPoint" />
          </mxGeometry>
        </mxCell>
        <mxCell id="7miDxdluwtFVcydIeeNt-36" value="" style="endArrow=classic;html=1;rounded=0;exitX=1;exitY=1;exitDx=0;exitDy=0;entryX=0;entryY=0;entryDx=0;entryDy=0;" edge="1" parent="1" source="7miDxdluwtFVcydIeeNt-15" target="7miDxdluwtFVcydIeeNt-17">
          <mxGeometry width="50" height="50" relative="1" as="geometry">
            <mxPoint x="240" y="1330" as="sourcePoint" />
            <mxPoint x="290" y="1280" as="targetPoint" />
          </mxGeometry>
        </mxCell>
        <mxCell id="7miDxdluwtFVcydIeeNt-37" value="" style="endArrow=classic;html=1;rounded=0;exitX=0;exitY=1;exitDx=0;exitDy=0;entryX=1;entryY=0;entryDx=0;entryDy=0;" edge="1" parent="1" source="7miDxdluwtFVcydIeeNt-17" target="7miDxdluwtFVcydIeeNt-18">
          <mxGeometry width="50" height="50" relative="1" as="geometry">
            <mxPoint x="550" y="1630" as="sourcePoint" />
            <mxPoint x="600" y="1580" as="targetPoint" />
          </mxGeometry>
        </mxCell>
        <mxCell id="7miDxdluwtFVcydIeeNt-38" value="" style="endArrow=classic;html=1;rounded=0;exitX=1;exitY=1;exitDx=0;exitDy=0;entryX=0;entryY=0;entryDx=0;entryDy=0;" edge="1" parent="1" source="7miDxdluwtFVcydIeeNt-16" target="7miDxdluwtFVcydIeeNt-18">
          <mxGeometry width="50" height="50" relative="1" as="geometry">
            <mxPoint x="240" y="1330" as="sourcePoint" />
            <mxPoint x="290" y="1280" as="targetPoint" />
          </mxGeometry>
        </mxCell>
      </root>
    </mxGraphModel>
  </diagram>
</mxfile>
